<svg width="39" height="39" viewBox="0 0 39 39" fill="none" xmlns="http://www.w3.org/2000/svg">
<path d="M5.15125 12.09L19.5 20.3937L33.7512 12.1387M19.5 35.1162V20.3775" stroke="#F0EFF4" stroke-width="3" stroke-linecap="round" stroke-linejoin="round"/>
<path d="M35.1163 20.8488V14.9013C35.1163 12.6588 33.5075 9.92875 31.5413 8.84L22.8638 4.03C21.0113 2.99 17.9888 2.99 16.1363 4.03L7.45879 8.84C5.49254 9.92875 3.88379 12.6588 3.88379 14.9013V24.0988C3.88379 26.3413 5.49254 29.0713 7.45879 30.16L16.1363 34.97C17.0625 35.49 18.2813 35.75 19.5 35.75C20.7188 35.75 21.9375 35.49 22.8638 34.97" stroke="#F0EFF4" stroke-width="3" stroke-linecap="round" stroke-linejoin="round"/>
<path d="M37.375 35.75L35.75 34.125M31.2 34.775C32.5791 34.775 33.9018 34.2271 34.877 33.252C35.8521 32.2768 36.4 30.9541 36.4 29.575C36.4 28.1959 35.8521 26.8732 34.877 25.898C33.9018 24.9229 32.5791 24.375 31.2 24.375C29.8209 24.375 28.4982 24.9229 27.523 25.898C26.5479 26.8732 26 28.1959 26 29.575C26 30.9541 26.5479 32.2768 27.523 33.252C28.4982 34.2271 29.8209 34.775 31.2 34.775Z" stroke="#F0EFF4" stroke-width="3" stroke-linecap="round" stroke-linejoin="round"/>
</svg>
