<svg width="39" height="39" viewBox="0 0 39 39" fill="none" xmlns="http://www.w3.org/2000/svg">
<path d="M14.95 24.0175L19.1425 27.69C19.3375 27.8687 19.6463 27.8687 19.8413 27.69L24.0338 24.0175C25.1225 23.0587 25.2688 21.4337 24.3588 20.2962C23.4488 19.1587 21.7913 18.9475 20.6375 19.825L19.5 20.7025L18.3463 19.8412C17.1763 18.9637 15.535 19.175 14.625 20.3125C13.715 21.4337 13.8613 23.075 14.95 24.0175Z" stroke="#F0EFF4" stroke-width="3" stroke-linecap="round" stroke-linejoin="round"/>
<path d="M35.75 17.875V27.625C35.75 34.125 34.125 35.75 27.625 35.75H11.375C4.875 35.75 3.25 34.125 3.25 27.625V11.375C3.25 4.875 4.875 3.25 11.375 3.25H13.8125C16.25 3.25 16.7862 3.965 17.7125 5.2L20.15 8.45C20.7675 9.2625 21.125 9.75 22.75 9.75H27.625C34.125 9.75 35.75 11.375 35.75 17.875Z" stroke="#F0EFF4" stroke-width="3" stroke-miterlimit="10"/>
</svg>
