<svg width="70" height="70" viewBox="0 0 70 70" fill="none" xmlns="http://www.w3.org/2000/svg">
<path d="M35.0046 62.7083C31.1723 62.7083 27.5702 61.981 24.1981 60.5266C20.826 59.0721 17.8928 57.0983 15.3984 54.605C12.9039 52.1117 10.9292 49.1798 9.47412 45.8092C8.01904 42.4386 7.2915 38.8372 7.2915 35.0049C7.2915 31.1726 8.01873 27.5704 9.47317 24.1983C10.9276 20.8262 12.9015 17.893 15.3947 15.3986C17.888 12.9042 20.82 10.9294 24.1906 9.47437C27.5611 8.01929 31.1626 7.29175 34.9949 7.29175C38.8272 7.29175 42.4294 8.01897 45.8014 9.47342C49.1735 10.9279 52.1068 12.9017 54.6011 15.395C57.0956 17.8883 59.0703 20.8202 60.5254 24.1908C61.9805 27.5614 62.708 31.1628 62.708 34.9951C62.708 38.8274 61.9808 42.4296 60.5263 45.8017C59.0719 49.1738 57.0981 52.107 54.6048 54.6014C52.1115 57.0958 49.1795 59.0706 45.8089 60.5257C42.4384 61.9807 38.8369 62.7083 35.0046 62.7083ZM31.9204 59.298V53.403C30.2345 53.403 28.8137 52.7898 27.658 51.5633C26.5023 50.3368 25.9245 48.8822 25.9245 47.1995V44.0753L11.2289 29.3798C11.0233 30.3146 10.8672 31.2474 10.7606 32.178C10.654 33.1086 10.6008 34.0514 10.6008 35.0063C10.6008 41.2093 12.6219 46.6264 16.6641 51.2576C20.7063 55.8887 25.7917 58.5689 31.9204 59.298ZM53.0214 51.5352C54.0534 50.406 54.9658 49.1961 55.7586 47.9057C56.5513 46.6154 57.2241 45.2651 57.777 43.8549C58.3299 42.4448 58.7384 40.9988 59.0025 39.517C59.2667 38.0352 59.3988 36.5296 59.3988 35C59.3988 29.9453 58.0171 25.3425 55.2537 21.1914C52.4904 17.0403 48.7791 14.0206 44.12 12.1322V13.4825C44.12 15.1587 43.5421 16.6101 42.3864 17.8366C41.2308 19.0631 39.8099 19.6763 38.1239 19.6763H31.9204V25.8798C31.9204 26.7142 31.6063 27.4014 30.9781 27.9415C30.3499 28.4816 29.6259 28.7516 28.8061 28.7516H22.8003V35H41.2481C42.0825 35 42.7697 35.3066 43.3098 35.9198C43.8499 36.5331 44.12 37.253 44.12 38.0793V47.1995H47.1873C48.5676 47.1995 49.7886 47.6023 50.8502 48.4081C51.9117 49.2137 52.6355 50.2561 53.0214 51.5352Z" fill="#F0EFF4"/>
</svg>
