<svg width="17" height="17" viewBox="0 0 17 17" fill="none" xmlns="http://www.w3.org/2000/svg">
<g clip-path="url(#clip0_425_18)">
<path d="M5.95007 16.5042L4.49798 14.025L1.61152 13.4229L1.94798 10.625L0.124023 8.49999L1.94798 6.39269L1.61152 3.57707L4.49798 2.99269L5.95007 0.495819L8.50007 1.66457L11.0678 0.495819L12.5199 2.99269L15.3886 3.57707L15.0522 6.39269L16.8761 8.49999L15.0522 10.625L15.3886 13.4229L12.5199 14.025L11.0678 16.5042L8.50007 15.3354L5.95007 16.5042ZM7.73861 10.9969L11.9001 6.87082L10.9438 6.00311L7.73861 9.19061L6.07403 7.41978L5.10007 8.37603L7.73861 10.9969Z" fill="black"/>
</g>
<defs>
<clipPath id="clip0_425_18">
<rect width="17" height="17" fill="white"/>
</clipPath>
</defs>
</svg>
