<svg width="36" height="70" viewBox="0 0 36 70" fill="none" xmlns="http://www.w3.org/2000/svg">
<path d="M34.3081 45.6708L17.8081 69.6708L1.30811 45.6708L17.8081 22.1708L34.3081 45.6708ZM6.07471 45.6737L17.8081 62.5409L29.5415 45.6737L17.8081 29.5409L6.07471 45.6737Z" fill="currentColor"/>
<path d="M27.2437 13.8047L17.8101 27.4746L8.37256 13.8047L17.814 0L27.2437 13.8047ZM12.2368 13.7969L17.8325 22.1738L23.395 13.8213L17.8003 5.80664L12.2368 13.7969Z" fill="currentColor"/>
<path d="M35.958 32.1182L28.2734 43.253L20.5859 32.1182L28.2764 20.8731L35.958 32.1182ZM25.0713 31.043L28.8174 36.5274L31.9248 31.9932L28.1533 26.5313L25.0713 31.043Z" fill="currentColor"/>
<path d="M0 32.1151L7.68457 43.2499L15.3721 32.1151L7.68164 20.87L0 32.1151ZM10.8867 31.0399L7.14062 36.5243L4.0332 31.9901L7.80469 26.5282L10.8867 31.0399Z" fill="currentColor"/>
<path d="M9.80908 45.6708L17.8091 34.6708L25.8089 45.6708L17.8091 57.1708L9.80908 45.6708Z" fill="currentColor"/>
</svg>
