<svg width="28" height="28" viewBox="0 0 28 28" fill="none" xmlns="http://www.w3.org/2000/svg">
<path fill-rule="evenodd" clip-rule="evenodd" d="M2.625 7.875C2.625 6.9085 3.4085 6.125 4.375 6.125C5.3415 6.125 6.125 6.9085 6.125 7.875C6.125 8.8415 5.3415 9.625 4.375 9.625C3.4085 9.625 2.625 8.8415 2.625 7.875ZM7.875 7.875C7.875 7.39175 8.26675 7 8.75 7H24.5C24.9832 7 25.375 7.39175 25.375 7.875C25.375 8.35825 24.9832 8.75 24.5 8.75H8.75C8.26675 8.75 7.875 8.35825 7.875 7.875ZM2.625 14C2.625 13.0335 3.4085 12.25 4.375 12.25C5.3415 12.25 6.125 13.0335 6.125 14C6.125 14.9665 5.3415 15.75 4.375 15.75C3.4085 15.75 2.625 14.9665 2.625 14ZM7.875 14C7.875 13.5168 8.26675 13.125 8.75 13.125H24.5C24.9832 13.125 25.375 13.5168 25.375 14C25.375 14.4832 24.9832 14.875 24.5 14.875H8.75C8.26675 14.875 7.875 14.4832 7.875 14ZM2.625 20.125C2.625 19.1585 3.4085 18.375 4.375 18.375C5.3415 18.375 6.125 19.1585 6.125 20.125C6.125 21.0915 5.3415 21.875 4.375 21.875C3.4085 21.875 2.625 21.0915 2.625 20.125ZM7.875 20.125C7.875 19.6418 8.26675 19.25 8.75 19.25H24.5C24.9832 19.25 25.375 19.6418 25.375 20.125C25.375 20.6082 24.9832 21 24.5 21H8.75C8.26675 21 7.875 20.6082 7.875 20.125Z" fill="#AEB5B9"/>
</svg>
