<svg width="28" height="28" viewBox="0 0 28 28" fill="none" xmlns="http://www.w3.org/2000/svg">
<path d="M11.3168 25.6666L10.7335 21.9916C10.3641 21.8555 9.97516 21.6708 9.56683 21.4375C9.1585 21.2041 8.79877 20.9611 8.48766 20.7083L5.046 22.2833L2.3335 17.5L5.4835 15.1958C5.44461 15.0208 5.4203 14.8215 5.41058 14.5979C5.40086 14.3743 5.396 14.175 5.396 14C5.396 13.825 5.40086 13.6257 5.41058 13.4021C5.4203 13.1785 5.44461 12.9791 5.4835 12.8041L2.3335 10.5L5.046 5.71665L8.48766 7.29165C8.79877 7.03887 9.1585 6.79581 9.56683 6.56248C9.97516 6.32915 10.3641 6.15415 10.7335 6.03748L11.3168 2.33331H16.6835L17.2668 6.00831C17.6363 6.14442 18.03 6.32429 18.4481 6.5479C18.8661 6.77151 19.221 7.01942 19.5127 7.29165L22.9543 5.71665L25.6668 10.5L22.5168 12.7458C22.5557 12.9403 22.58 13.1493 22.5897 13.3729C22.5995 13.5965 22.6043 13.8055 22.6043 14C22.6043 14.1944 22.5995 14.3986 22.5897 14.6125C22.58 14.8264 22.5557 15.0305 22.5168 15.225L25.6668 17.5L22.9543 22.2833L19.5127 20.7083C19.2016 20.9611 18.8467 21.209 18.4481 21.4521C18.0495 21.6951 17.6557 21.875 17.2668 21.9916L16.6835 25.6666H11.3168ZM14.0002 17.7916C15.0502 17.7916 15.9446 17.4222 16.6835 16.6833C17.4224 15.9444 17.7918 15.05 17.7918 14C17.7918 12.95 17.4224 12.0555 16.6835 11.3166C15.9446 10.5778 15.0502 10.2083 14.0002 10.2083C12.9502 10.2083 12.0557 10.5778 11.3168 11.3166C10.5779 12.0555 10.2085 12.95 10.2085 14C10.2085 15.05 10.5779 15.9444 11.3168 16.6833C12.0557 17.4222 12.9502 17.7916 14.0002 17.7916Z" fill="#AEB5B9"/>
</svg>
