<svg width="28" height="28" viewBox="0 0 28 28" fill="none" xmlns="http://www.w3.org/2000/svg">
<path d="M10.5002 20.2087H17.2085C17.4808 20.2087 17.7092 20.1504 17.894 20.0337C18.0787 19.9171 18.2391 19.7421 18.3752 19.5087L20.6502 14.2341C20.6891 14.1374 20.7231 13.9921 20.7523 13.7982C20.7815 13.6044 20.796 13.4591 20.796 13.3625V12.6606C20.796 12.3878 20.7328 12.1879 20.6065 12.0611C20.4801 11.9343 20.2808 11.8709 20.0085 11.8709H13.7669L14.5962 7.99423C14.6351 7.79471 14.6296 7.60491 14.5797 7.42484C14.5299 7.24476 14.4343 7.08413 14.2931 6.94295L13.796 6.41669L9.10021 11.4985C9.02243 11.6533 8.94465 11.808 8.86687 11.9626C8.7891 12.1173 8.75021 12.2815 8.75021 12.4554V18.4654C8.75021 18.9095 8.92521 19.3111 9.27521 19.6702C9.62521 20.0292 10.0335 20.2087 10.5002 20.2087ZM14.0025 26.0788C12.3406 26.0788 10.7752 25.7639 9.30647 25.134C7.83772 24.5041 6.55463 23.6404 5.4572 22.543C4.3598 21.4456 3.49614 20.1633 2.86624 18.696C2.23634 17.2288 1.92139 15.6642 1.92139 14.0023C1.92139 12.321 2.23634 10.7459 2.86624 9.27712C3.49614 7.80837 4.35894 6.52986 5.45464 5.44159C6.55031 4.35332 7.83218 3.49178 9.30023 2.85696C10.7683 2.22214 12.3337 1.90472 13.9966 1.90472C15.6788 1.90472 17.255 2.22171 18.7251 2.85567C20.1951 3.48964 21.4739 4.35003 22.5613 5.43684C23.6488 6.52365 24.5097 7.80165 25.144 9.27085C25.7783 10.7401 26.0955 12.3164 26.0955 14C26.0955 15.6634 25.7781 17.2294 25.1433 18.698C24.5085 20.1666 23.6469 21.4489 22.5586 22.545C21.4704 23.6411 20.1926 24.5041 18.7254 25.134C17.2581 25.7639 15.6838 26.0788 14.0025 26.0788Z" fill="#F0EFF4"/>
</svg>
