<svg width="28" height="28" viewBox="0 0 28 28" fill="none" xmlns="http://www.w3.org/2000/svg">
<path d="M14.3036 5.53875C14.2222 5.46086 14.1138 5.41739 14.0012 5.41739C13.8885 5.41739 13.7802 5.46086 13.6988 5.53875L3.63078 15.1566C3.58802 15.1975 3.55401 15.2467 3.53079 15.3011C3.50757 15.3555 3.49564 15.4141 3.4957 15.4733L3.49406 24.5C3.49406 24.9641 3.67844 25.4092 4.00663 25.7374C4.33482 26.0656 4.77993 26.25 5.24406 26.25H10.4995C10.7316 26.25 10.9542 26.1578 11.1182 25.9937C11.2823 25.8296 11.3745 25.6071 11.3745 25.375V17.9375C11.3745 17.8215 11.4206 17.7102 11.5027 17.6281C11.5847 17.5461 11.696 17.5 11.812 17.5H16.187C16.3031 17.5 16.4143 17.5461 16.4964 17.6281C16.5784 17.7102 16.6245 17.8215 16.6245 17.9375V25.375C16.6245 25.6071 16.7167 25.8296 16.8808 25.9937C17.0449 26.1578 17.2675 26.25 17.4995 26.25H22.7528C23.2169 26.25 23.6621 26.0656 23.9902 25.7374C24.3184 25.4092 24.5028 24.9641 24.5028 24.5V15.4733C24.5029 15.4141 24.4909 15.3555 24.4677 15.3011C24.4445 15.2467 24.4105 15.1975 24.3677 15.1566L14.3036 5.53875Z" fill="#F0EFF4"/>
<path d="M26.8462 13.352L22.7555 9.43852V3.5C22.7555 3.26794 22.6634 3.04538 22.4993 2.88128C22.3352 2.71719 22.1126 2.625 21.8805 2.625H19.2555C19.0235 2.625 18.8009 2.71719 18.6368 2.88128C18.4727 3.04538 18.3805 3.26794 18.3805 3.5V5.25L15.213 2.22141C14.9166 1.92172 14.4759 1.75 13.9995 1.75C13.5248 1.75 13.0852 1.92172 12.7888 2.22195L1.15672 13.3509C0.816564 13.679 0.773907 14.2188 1.08344 14.5742C1.16117 14.6639 1.25634 14.7369 1.36316 14.7887C1.46999 14.8405 1.58623 14.87 1.70482 14.8754C1.82341 14.8808 1.94186 14.862 2.05296 14.8202C2.16407 14.7784 2.2655 14.7144 2.35109 14.6322L13.6988 3.78875C13.7802 3.71086 13.8885 3.66739 14.0012 3.66739C14.1138 3.66739 14.2222 3.71086 14.3036 3.78875L25.6523 14.6322C25.8195 14.7925 26.0434 14.88 26.275 14.8755C26.5066 14.871 26.7269 14.7748 26.8877 14.6081C27.2235 14.2603 27.1956 13.6861 26.8462 13.352Z" fill="#F0EFF4"/>
</svg>
