<svg width="12" height="17" viewBox="0 0 12 17" fill="none" xmlns="http://www.w3.org/2000/svg">
<path d="M6.21429 0.5C3.05964 0.5 0.5 2.80393 0.5 5.64286C0.5 10.2143 6.21429 16.5 6.21429 16.5C6.21429 16.5 11.9286 10.2143 11.9286 5.64286C11.9286 2.80393 9.36893 0.5 6.21429 0.5ZM6.21429 8.5C5.76221 8.5 5.3203 8.36595 4.94441 8.11479C4.56853 7.86363 4.27556 7.50665 4.10256 7.08899C3.92956 6.67133 3.8843 6.21175 3.97249 5.76837C4.06069 5.32498 4.27838 4.9177 4.59804 4.59804C4.9177 4.27838 5.32498 4.06069 5.76837 3.97249C6.21175 3.8843 6.67133 3.92956 7.08899 4.10256C7.50665 4.27556 7.86363 4.56853 8.11479 4.94441C8.36595 5.3203 8.5 5.76221 8.5 6.21429C8.49934 6.82029 8.25831 7.40129 7.8298 7.8298C7.40129 8.25831 6.82029 8.49934 6.21429 8.5Z" fill="#F0EFF4"/>
</svg>
