<svg width="28" height="28" viewBox="0 0 28 28" fill="none" xmlns="http://www.w3.org/2000/svg">
<path d="M14.0006 24.5C13.6493 24.4996 13.3064 24.3934 13.0162 24.1954C8.71834 21.2778 6.85733 19.2773 5.83084 18.0266C3.64334 15.3606 2.59608 12.6235 2.62561 9.65945C2.66006 6.26281 5.38514 3.5 8.70029 3.5C11.1109 3.5 12.7805 4.85789 13.7529 5.98883C13.7837 6.02429 13.8217 6.05273 13.8645 6.07222C13.9072 6.09171 13.9536 6.10179 14.0006 6.10179C14.0476 6.10179 14.094 6.09171 14.1367 6.07222C14.1795 6.05273 14.2175 6.02429 14.2483 5.98883C15.2207 4.8568 16.8903 3.5 19.3009 3.5C22.6161 3.5 25.3412 6.26281 25.3756 9.66C25.4051 12.6246 24.3568 15.3617 22.1704 18.0272C21.1439 19.2779 19.2829 21.2784 14.985 24.1959C14.6948 24.3938 14.3518 24.4997 14.0006 24.5Z" fill="#AEB5B9"/>
</svg>
